# xmcd CD database file
#
# Track frame offsets:
#       150
#       13307
#       28005
#       42951
#       55710
#       80679
#       96093
#       107732
#       123905
#       148551
#
# Disc length: 2356 seconds
#
# Revision: 0
# Processed by: cddbd v1.5.2PL0 Copyright (c) Steve Scherf et al.
# Submitted via: jack 3.1.1
#
DISCID=8009320a
DTITLE=AmmA - Down where the lilies blow
DYEAR=2012
DGENRE=Folk
TTITLE0=King Orfeo
TTITLE1=Swedish Blend
TTITLE2=Willy Taylor
TTITLE3=I Met a Little Elfman Once
TTITLE4=Sneeuwvlokjeswals
TTITLE5=Dirty Old Town
TTITLE6=Salty Waltz
TTITLE7=The Ballad of Tim Evans
TTITLE8=Matty Groves
TTITLE9=Sillibrand (bonus track)
EXTD=
EXTT0=
EXTT1=
EXTT2=
EXTT3=
EXTT4=
EXTT5=
EXTT6=
EXTT7=
EXTT8=
EXTT9=
PLAYORDER=
